<svg width="27" height="16" viewBox="0 0 27 16" fill="none" xmlns="http://www.w3.org/2000/svg">
<path d="M25.0781 9C25.6304 9 26.0781 8.55228 26.0781 8C26.0781 7.44772 25.6304 7 25.0781 7L25.0781 9ZM0.291738 7.2929C-0.0987854 7.68342 -0.0987854 8.31658 0.291739 8.70711L6.6557 15.0711C7.04623 15.4616 7.67939 15.4616 8.06991 15.0711C8.46044 14.6805 8.46044 14.0474 8.06991 13.6569L2.41306 8L8.06991 2.34315C8.46044 1.95262 8.46044 1.31946 8.06991 0.928934C7.67939 0.538409 7.04622 0.538409 6.6557 0.928934L0.291738 7.2929ZM25.0781 7L0.998846 7L0.998846 9L25.0781 9L25.0781 7Z" fill="#EBEEF3"/>
</svg>
