<svg width="27" height="16" viewBox="0 0 27 16" fill="none" xmlns="http://www.w3.org/2000/svg">
<path d="M1.91797 7C1.36568 7 0.917969 7.44772 0.917969 8C0.917969 8.55228 1.36568 9 1.91797 9V7ZM26.7044 8.70711C27.0949 8.31658 27.0949 7.68342 26.7044 7.29289L20.3404 0.928932C19.9499 0.538408 19.3167 0.538408 18.9262 0.928932C18.5357 1.31946 18.5357 1.95262 18.9262 2.34315L24.583 8L18.9262 13.6569C18.5357 14.0474 18.5357 14.6805 18.9262 15.0711C19.3167 15.4616 19.9499 15.4616 20.3404 15.0711L26.7044 8.70711ZM1.91797 9L25.9972 9V7L1.91797 7V9Z" fill="#EBEEF3"/>
</svg>
