<svg width="48" height="49" viewBox="0 0 48 49" fill="none" xmlns="http://www.w3.org/2000/svg">
<path d="M23.8956 48.1259C36.8814 48.1259 47.4085 37.3526 47.4085 24.063C47.4085 10.7734 36.8814 0 23.8956 0C10.9099 0 0.382812 10.7734 0.382812 24.063C0.382812 37.3526 10.9099 48.1259 23.8956 48.1259Z" fill="#262626"/>
<path d="M31.1456 14.9957C30.1793 14.9957 29.5352 15.655 29.5352 16.6439C29.5352 17.6328 30.3404 18.292 31.1456 18.292C32.1119 18.292 32.7561 17.6328 32.7561 16.6439C32.7561 15.8198 32.1119 14.9957 31.1456 14.9957Z" fill="white"/>
<path d="M24.0608 17.1425C20.3568 17.1425 17.2969 20.2739 17.2969 24.0647C17.2969 27.8554 20.3568 30.9869 24.0608 30.9869C27.7649 30.9869 30.8248 27.8554 30.8248 24.0647C30.8248 20.2739 27.7649 17.1425 24.0608 17.1425ZM24.0608 28.5147C21.6451 28.5147 19.7126 26.5369 19.7126 24.0647C19.7126 21.5925 21.6451 19.6147 24.0608 19.6147C26.4765 19.6147 28.4091 21.5925 28.4091 24.0647C28.4091 26.5369 26.4765 28.5147 24.0608 28.5147Z" fill="white"/>
<path d="M29.3755 38.2381H18.4243C13.915 38.2381 10.2109 34.4474 10.2109 29.8326V18.6252C10.2109 14.0103 13.915 10.2196 18.4243 10.2196H29.3755C33.8848 10.2196 37.5889 14.0103 37.5889 18.6252V29.6677C37.7499 34.4474 34.0459 38.2381 29.3755 38.2381ZM18.4243 12.6918C15.2034 12.6918 12.7877 15.3289 12.7877 18.4603V29.6677C12.7877 32.964 15.3644 35.4363 18.4243 35.4363H29.3755C32.5964 35.4363 35.0121 32.7992 35.0121 29.6677V18.4603C35.0121 15.164 32.4354 12.6918 29.3755 12.6918H18.4243Z" fill="white"/>
</svg>
