<svg width="48" height="49" viewBox="0 0 48 49" fill="none" xmlns="http://www.w3.org/2000/svg">
<path d="M23.8136 48.1259C36.7994 48.1259 47.3264 37.3526 47.3264 24.063C47.3264 10.7734 36.7994 0 23.8136 0C10.8278 0 0.300781 10.7734 0.300781 24.063C0.300781 37.3526 10.8278 48.1259 23.8136 48.1259Z" fill="#262626"/>
<path d="M36.8625 15.8224C36.0572 16.1521 35.091 16.4817 34.2857 16.6465C34.7689 16.6465 35.252 15.8224 35.5741 15.4928C35.8962 14.9983 36.2183 14.5039 36.3793 13.8446V13.6798H36.2183C35.252 14.1743 34.2857 14.6687 33.1584 14.8335C32.9973 14.8335 32.9974 14.8335 32.9974 14.8335C32.8363 14.6687 32.8363 14.6687 32.6753 14.5039C32.1921 14.1743 31.709 13.8446 31.2258 13.515C30.5816 13.1854 29.7764 13.0206 28.9712 13.1854C28.1659 13.1854 27.5218 13.515 26.8776 13.8446C26.2334 14.1743 25.5892 14.6687 25.1061 15.328C24.6229 15.9872 24.3008 16.6465 24.1398 17.4706C23.9787 18.2946 23.9787 18.9539 24.1398 19.778C24.1398 19.9428 24.1398 19.9428 23.9787 19.9428C19.7915 19.2835 16.2485 17.8002 13.3496 14.5039C13.1886 14.3391 13.1886 14.3391 13.0275 14.5039C11.7392 16.4817 12.3834 19.4483 13.9938 20.9317C14.1549 21.0965 14.477 21.2613 14.638 21.5909C14.477 21.5909 13.5107 21.4261 12.5444 20.9317C12.3834 20.9317 12.3834 20.9317 12.3834 21.0965C12.3834 21.2613 12.3834 21.4261 12.3834 21.7558C12.5444 23.7335 13.9938 25.5465 15.7653 26.2057C15.9264 26.3706 16.2485 26.3706 16.4095 26.3706C15.9264 26.5354 15.6043 26.5354 14.477 26.3706C14.3159 26.3706 14.3159 26.3706 14.3159 26.5354C15.1211 29.0076 17.0537 29.6669 18.5031 30.1613C18.6642 30.1613 18.8252 30.1613 19.1473 30.1613C18.6642 30.8206 17.0537 31.4798 16.2485 31.6446C14.7991 32.1391 13.3496 32.3039 11.9002 32.1391C11.7392 32.1391 11.5781 32.1391 11.5781 32.1391V32.3039C11.9002 32.4687 12.2223 32.6335 12.5444 32.7983C13.5107 33.2928 14.477 33.7872 15.4433 33.952C20.7578 35.4354 26.5555 34.2817 30.5816 30.3261C33.6415 27.1946 34.7689 22.9095 34.7689 18.4595C34.7689 18.2946 34.9299 18.1298 35.091 18.1298C35.8962 17.4706 36.5404 16.8113 37.1846 15.9872C36.8625 16.152 36.8625 15.9872 36.8625 15.8224Z" fill="white"/>
</svg>
